<svg width="226" height="64" viewBox="0 0 226 64" fill="none" xmlns="http://www.w3.org/2000/svg">
<rect width="226" height="64" />
<circle cx="32" cy="32" r="20" fill="#43B38E"/>
<path fill-rule="evenodd" clip-rule="evenodd" d="M46.598 18.3309C46.5838 18.3491 46.57 18.3683 46.5566 18.3882C46.6083 18.6517 46.6354 18.924 46.6354 19.2026C46.6354 20.681 45.872 21.981 44.718 22.7302C44.8728 23.4916 44.954 24.2797 44.954 25.0869C44.954 31.2631 40.1957 36.328 34.145 36.8156C34.6459 38.2873 35.5914 39.5533 36.8215 40.4536C39.6415 39.7631 42.5888 39.397 45.6216 39.397C46.5894 39.397 47.5486 39.4343 48.4977 39.5075C48.325 39.9267 48.1386 40.3387 47.9389 40.7431C39.1457 41.3753 31.2064 45.0907 25.1964 50.8137C23.7353 50.2854 22.3534 49.5917 21.0732 48.7553C24.7435 45.4786 29.0736 42.9253 33.8393 41.3194C32.5033 40.1625 31.5802 38.5414 31.3209 36.707C28.8186 36.3083 26.5794 35.1209 24.866 33.4075C20.972 35.9599 18.3999 40.3629 18.3999 45.3667C18.3999 45.8248 18.4215 46.2778 18.4637 46.7249C16.0005 44.4597 14.1072 41.5843 13.0234 38.3385C15.3009 34.7721 18.7163 32.0027 22.7578 30.5423C22.4097 29.8782 22.1232 29.1767 21.9058 28.4454C22.0236 28.4478 22.1417 28.4489 22.2601 28.4489C29.5331 28.4489 35.7788 24.05 38.4816 17.7676C38.5118 17.6843 38.5446 17.6023 38.5799 17.5216C38.5966 17.4833 38.6139 17.4453 38.6317 17.4076C38.9765 16.6787 39.5249 16.0649 40.2033 15.6395C40.2546 15.6073 40.3067 15.5762 40.3595 15.5462C40.9713 15.1985 41.6789 15 42.4328 15C42.469 15 42.5051 15.0005 42.5411 15.0014C44.0365 15.9308 45.4003 17.0521 46.598 18.3309Z" fill="#FFCB67"/>
<path fill-rule="evenodd" clip-rule="evenodd" d="M42.3629 15.6492C42.9746 15.3016 43.6822 15.103 44.4362 15.103C45.8511 15.103 47.1027 15.8022 47.8643 16.874C48.1134 16.8151 48.3732 16.7839 48.6404 16.7839C49.0682 16.7839 49.4775 16.8639 49.8539 17.0096C49.9599 17.0507 50.0032 17.1757 49.9432 17.2723C49.6774 17.7001 49.287 18.0425 48.8228 18.2488C48.7212 18.294 48.6349 18.3799 48.5599 18.4913C48.6117 18.7547 48.6388 19.027 48.6388 19.3056C48.6388 20.784 47.8754 22.0841 46.7214 22.8332C46.8761 23.5946 46.9574 24.3828 46.9574 25.1899C46.9574 31.3662 42.1991 36.4311 36.1484 36.9187C36.6493 38.3903 37.5948 39.6563 38.8248 40.5566C41.6448 39.8661 44.5921 39.5 47.625 39.5C48.5928 39.5 49.552 39.5373 50.5011 39.6105C50.3284 40.0297 50.142 40.4418 49.9422 40.8461C40.9471 41.4928 32.8455 45.366 26.7887 51.3143C25.2257 50.8936 23.7383 50.2882 22.3516 49.523C26.1717 45.9262 30.7593 43.1354 35.8427 41.4224C34.5067 40.2655 33.5836 38.6444 33.3242 36.81C30.822 36.4114 28.5828 35.2239 26.8694 33.5105C22.9753 36.0629 20.4033 40.4659 20.4033 45.4697C20.4033 46.4737 20.5069 47.4535 20.7039 48.399C19.8997 48.3007 19.0808 48.25 18.25 48.25C16.069 48.25 13.9694 48.5991 12.0043 49.2445C12.0014 49.1073 12 48.9698 12 48.8319C12 40.4621 17.319 33.3346 24.7612 30.6453C24.4131 29.9812 24.1266 29.2797 23.9092 28.5485C24.027 28.5508 24.1451 28.552 24.2634 28.552C31.5365 28.552 37.7821 24.153 40.485 17.8707C40.5152 17.7874 40.548 17.7053 40.5833 17.6246C40.6 17.5863 40.6173 17.5483 40.6351 17.5107C40.9799 16.7817 41.5282 16.1679 42.2067 15.7425C42.258 15.7103 42.3101 15.6792 42.3629 15.6492Z" fill="#004432"/>
<circle cx="46.1179" cy="17.6245" r="0.840517" fill="white"/>
<path fill-rule="evenodd" clip-rule="evenodd" d="M41.0657 21.5044C39.1541 26.6032 34.2354 30.2323 28.4692 30.2323C27.8692 30.2323 27.2784 30.193 26.6992 30.1168C28.2265 32.2238 30.7078 33.5942 33.5091 33.5942C38.1511 33.5942 41.9143 29.8311 41.9143 25.1891C41.9143 23.8674 41.6092 22.617 41.0657 21.5044Z" fill="white"/>
<path d="M61.793 42H65.589V29.39L70.087 42H71.439L75.963 29.39V42H80.227V23.41H74.715L71.023 34.096L67.305 23.41H61.793V42Z" fill="#004432"/>
<path d="M82.9171 35.734C82.9171 39.868 85.9071 42.286 89.7811 42.286C93.6291 42.286 96.6711 39.816 96.6711 35.63V34.668C96.6711 30.534 93.6551 28.09 89.8071 28.09C85.9331 28.09 82.9171 30.612 82.9171 34.772V35.734ZM87.0251 35.708V34.616C87.0251 32.354 88.0911 31.132 89.8071 31.132C91.5231 31.132 92.5371 32.38 92.5371 34.668V35.734C92.5371 37.97 91.5231 39.244 89.8071 39.244C88.0391 39.244 87.0251 37.97 87.0251 35.708Z" fill="#004432"/>
<path d="M111.452 37.294L107.838 36.852C107.656 38.334 106.694 39.296 105.342 39.296C103.6 39.296 102.586 38.1 102.586 35.76V34.668C102.586 32.38 103.652 31.236 105.264 31.236C106.694 31.236 107.396 32.328 107.552 33.368L111.348 32.9C111.01 29.884 108.54 28.09 105.16 28.09C101.494 28.09 98.4784 30.456 98.4784 34.772V35.76C98.4784 40.076 101.39 42.286 105.16 42.286C109.034 42.286 111.114 39.894 111.452 37.294Z" fill="#004432"/>
<path d="M121.68 42H126.204L121.446 34.59L125.918 28.402H121.654L117.806 34.018V22.396H113.75V42H117.806V35.76L121.68 42Z" fill="#004432"/>
<path d="M130.173 26.92C131.473 26.92 132.461 25.984 132.461 24.762C132.461 23.514 131.447 22.578 130.173 22.578C128.899 22.578 127.911 23.514 127.911 24.762C127.911 25.984 128.873 26.92 130.173 26.92ZM128.145 42H132.227V28.402H128.145V42Z" fill="#004432"/>
<path d="M135.428 42H139.484V33.94C139.484 32.172 140.55 31.366 141.85 31.366C143.228 31.366 143.878 32.094 143.878 33.706V42H147.934V33.004C147.934 29.65 146.218 28.09 143.722 28.09C141.59 28.09 140.16 29.156 139.484 30.534V28.402H135.428V42Z" fill="#004432"/>
<path d="M163.834 41.142V28.402H159.778V30.378C159.076 29.026 157.828 28.09 155.8 28.09C152.706 28.09 150.34 30.456 150.34 34.278V35.344C150.34 39.244 152.706 41.402 155.696 41.402C157.698 41.402 159.128 40.31 159.778 39.01V41.194C159.778 42.988 158.842 44.054 156.918 44.054C155.176 44.054 154.474 43.092 154.344 42.338L150.366 42.832C150.626 44.886 152.758 46.94 156.892 46.94C161.26 46.94 163.834 45.042 163.834 41.142ZM157.126 38.49C155.488 38.49 154.448 37.346 154.448 35.396V34.278C154.448 32.302 155.462 31.106 157.178 31.106C158.868 31.106 159.856 32.302 159.856 34.304V35.292C159.856 37.32 158.764 38.49 157.126 38.49Z" fill="#004432"/>
<path d="M167.295 42H174.471C178.631 42 180.893 40.284 180.893 36.826V36.696C180.893 34.122 179.463 32.77 177.097 32.328C179.099 31.782 180.217 30.43 180.217 28.376V28.168C180.217 25.074 178.137 23.41 174.211 23.41H167.295V42ZM171.481 31.002V26.374H173.561C175.277 26.374 176.161 26.92 176.161 28.532V28.688C176.161 30.326 175.381 31.002 173.587 31.002H171.481ZM171.481 39.036V33.758H173.691C175.745 33.758 176.629 34.512 176.629 36.306V36.462C176.629 38.152 175.719 39.036 173.847 39.036H171.481Z" fill="#004432"/>
<path d="M185.589 26.92C186.889 26.92 187.877 25.984 187.877 24.762C187.877 23.514 186.863 22.578 185.589 22.578C184.315 22.578 183.327 23.514 183.327 24.762C183.327 25.984 184.289 26.92 185.589 26.92ZM183.561 42H187.643V28.402H183.561V42Z" fill="#004432"/>
<path d="M190.843 42H194.899V35.162C194.899 32.9 196.381 32.042 199.371 32.12V28.22C197.057 28.168 195.705 29.078 194.899 31.002V28.402H190.843V42Z" fill="#004432"/>
<path d="M214.17 22.396H210.114V30.404C209.412 29.026 208.164 28.09 206.11 28.09C203.042 28.09 200.676 30.378 200.676 34.694V35.812C200.676 40.154 203.016 42.286 206.006 42.286C208.008 42.286 209.464 41.142 210.114 39.79V42H214.17V22.396ZM210.192 35.682C210.192 38.022 209.074 39.166 207.41 39.166C205.798 39.166 204.784 38.048 204.784 35.786V34.642C204.784 32.328 205.772 31.132 207.488 31.132C209.178 31.132 210.192 32.328 210.192 34.642V35.682Z" fill="#004432"/>
</svg>
