<svg width="121" height="35" viewBox="0 0 121 35" fill="none" xmlns="http://www.w3.org/2000/svg">
<mask id="mask0_790:2904" style="mask-type:alpha" maskUnits="userSpaceOnUse" x="0" y="0" width="30" height="34">
<path fill-rule="evenodd" clip-rule="evenodd" d="M0 33.7393V0H29.6685V33.7393H0Z" fill="white"/>
</mask>
<g mask="url(#mask0_790:2904)">
<path fill-rule="evenodd" clip-rule="evenodd" d="M13.6681 1.16724C13.8561 1.16724 14.0451 1.23087 14.2265 1.35546C12.8318 2.01183 11.3371 3.66449 10.7059 6.96474C9.78313 7.25046 8.88144 7.52966 8.04773 7.78804C8.78733 5.27046 10.5428 1.16724 13.6681 1.16724ZM14.9613 2.39062C15.2286 3.06127 15.4026 4.02345 15.4026 5.32192C15.4026 5.38821 15.4021 5.44917 15.4016 5.51062C14.3424 5.83869 13.192 6.19482 12.0389 6.55192C12.6864 4.05296 13.8999 2.84595 14.9613 2.39062ZM18.1708 4.6537C17.6879 4.80322 17.1385 4.97305 16.5431 5.15741C16.5433 5.04273 16.5438 4.92999 16.5438 4.80636C16.5438 3.73047 16.3945 2.8641 16.155 2.17749C17.1174 2.29846 17.7585 3.39346 18.1708 4.6537ZM25.9856 6.56927C25.9623 6.39968 25.8135 6.30581 25.6911 6.2954C25.5685 6.28524 22.9752 6.09315 22.9752 6.09315C22.9752 6.09315 21.174 4.305 20.9763 4.10734C20.7786 3.90944 20.3925 3.96944 20.2425 4.01347C20.2202 4.02 19.8489 4.13468 19.2346 4.32484C18.6329 2.59355 17.5713 1.00258 15.7033 1.00258C15.6515 1.00258 15.5985 1.005 15.5453 1.0079C15.014 0.305323 14.3562 0 13.7877 0C9.43645 0 7.35774 5.43968 6.70573 8.20379C5.01508 8.72758 3.81387 9.10016 3.66048 9.14831C2.71669 9.44444 2.68694 9.47419 2.56306 10.3633C2.46944 11.0366 0 30.134 0 30.134L19.2426 33.7394L29.6685 31.4838C29.6685 31.4838 26.0088 6.73911 25.9856 6.56927Z" fill="#94BE46"/>
</g>
<path fill-rule="evenodd" clip-rule="evenodd" d="M25.6895 6.2953C25.5669 6.28514 22.9736 6.0928 22.9736 6.0928C22.9736 6.0928 21.1726 4.30489 20.9749 4.10699C20.9011 4.03344 20.8012 3.99546 20.6969 3.97925L19.2422 33.739L29.6669 31.4834C29.6669 31.4834 26.0072 6.73876 25.984 6.56917C25.9607 6.39933 25.8122 6.30546 25.6895 6.2953Z" fill="#5E8D3E"/>
<path fill-rule="evenodd" clip-rule="evenodd" d="M15.703 12.0564L14.4176 15.8807C14.4176 15.8807 13.2909 15.2793 11.9105 15.2793C9.88618 15.2793 9.78433 16.5497 9.78433 16.8697C9.78433 18.6165 14.3371 19.2855 14.3371 23.3766C14.3371 26.5951 12.2959 28.6677 9.54312 28.6677C6.23973 28.6677 4.55078 26.612 4.55078 26.612L5.4353 23.6899C5.4353 23.6899 7.17143 25.1805 8.63683 25.1805C9.59393 25.1805 9.98344 24.4268 9.98344 23.8762C9.98344 21.5979 6.2482 21.4963 6.2482 17.7526C6.2482 14.6016 8.50981 11.5525 13.0751 11.5525C14.834 11.5525 15.703 12.0564 15.703 12.0564Z" fill="#FEFEFE"/>
<path fill-rule="evenodd" clip-rule="evenodd" d="M41.8215 19.2253C40.7819 18.6608 40.247 18.1857 40.247 17.5319C40.247 16.6999 40.9897 16.1655 42.1483 16.1655C43.4981 16.1655 44.7034 16.7299 44.7034 16.7299L45.654 13.8182C45.654 13.8182 44.7799 13.135 42.2078 13.135C38.6279 13.135 36.1471 15.1849 36.1471 18.0666C36.1471 19.7007 37.3057 20.9486 38.8507 21.8396C40.0984 22.5526 40.544 23.0578 40.544 23.8005C40.544 24.573 39.9201 25.1969 38.7617 25.1969C37.0355 25.1969 35.4044 24.3057 35.4044 24.3057L34.3945 27.2171C34.3945 27.2171 35.9006 28.2272 38.4349 28.2272C42.1188 28.2272 44.7627 26.4148 44.7627 23.147C44.7627 21.3942 43.426 20.1463 41.8215 19.2253Z" fill="#010202"/>
<path fill-rule="evenodd" clip-rule="evenodd" d="M56.5007 13.1054C54.6886 13.1054 53.2624 13.9669 52.1633 15.2741L52.1038 15.2443L53.6783 7.01514H49.5787L45.5977 27.9597H49.6975L51.0639 20.7999C51.5989 18.0963 52.9951 16.4327 54.3025 16.4327C55.2233 16.4327 55.5799 17.0567 55.5799 17.948C55.5799 18.5122 55.5204 19.1956 55.4016 19.7601L53.8566 27.9597H57.9567L59.5607 19.4927C59.739 18.6014 59.8578 17.5318 59.8578 16.8188C59.8578 14.5016 58.6397 13.1054 56.5007 13.1054Z" fill="#010202"/>
<path fill-rule="evenodd" clip-rule="evenodd" d="M67.1053 25.1075C65.7091 25.1075 65.1146 23.9192 65.1146 22.4339C65.1146 20.0869 66.3328 16.2544 68.561 16.2544C70.0167 16.2544 70.4921 17.5021 70.4921 18.7202C70.4921 21.2455 69.274 25.1075 67.1053 25.1075ZM69.1255 13.1055C64.1936 13.1055 60.9258 17.5617 60.9258 22.523C60.9258 25.7018 62.8867 28.2567 66.5704 28.2567C71.413 28.2567 74.6808 23.9193 74.6808 18.8391C74.6808 15.8979 72.9577 13.1055 69.1255 13.1055Z" fill="#010202"/>
<path fill-rule="evenodd" clip-rule="evenodd" d="M81.2454 25.167C80.1809 25.167 79.5519 24.5731 79.5519 24.5731L80.2353 20.7406C80.7108 18.1857 82.0474 16.4922 83.4737 16.4922C84.7213 16.4922 85.1074 17.6508 85.1074 18.7499C85.1074 21.3943 83.5329 25.167 81.2454 25.167ZM85.167 13.1055C82.3999 13.1055 80.8293 15.5415 80.8293 15.5415H80.77L81.0078 13.3428H77.3834C77.2049 14.8285 76.8783 17.0863 76.5514 18.7798L73.6992 33.7827H77.7991L78.9279 27.722H79.0172C79.0172 27.722 79.8589 28.2567 81.4237 28.2567C86.2363 28.2567 89.3856 23.3251 89.3856 18.3339C89.3856 15.571 88.1674 13.1055 85.167 13.1055Z" fill="#010202"/>
<path fill-rule="evenodd" clip-rule="evenodd" d="M95.2413 7.2229C93.9344 7.2229 92.8945 8.26274 92.8945 9.59967C92.8945 10.8176 93.6668 11.6496 94.8254 11.6496H94.8849C96.1624 11.6496 97.2617 10.7878 97.2915 9.27282C97.2915 8.08467 96.4892 7.2229 95.2413 7.2229Z" fill="#010202"/>
<path fill-rule="evenodd" clip-rule="evenodd" d="M89.5078 27.9596H93.6077L96.4001 13.4321H92.2707L89.5078 27.9596Z" fill="#010202"/>
<path fill-rule="evenodd" clip-rule="evenodd" d="M106.828 13.4025H103.975L104.124 12.7192C104.362 11.3228 105.193 10.0751 106.56 10.0751C107.29 10.0751 107.867 10.2829 107.867 10.2829L108.669 7.07439C108.669 7.07439 107.956 6.71802 106.441 6.71802C104.985 6.71802 103.53 7.1339 102.431 8.08471C101.034 9.2731 100.381 10.9962 100.054 12.7192L99.935 13.4025H98.0336L97.4395 16.4922H99.3408L97.1719 27.9597H101.272L103.44 16.4922H106.263L106.828 13.4025Z" fill="#010202"/>
<mask id="mask1_790:2904" style="mask-type:alpha" maskUnits="userSpaceOnUse" x="105" y="13" width="16" height="22">
<path fill-rule="evenodd" clip-rule="evenodd" d="M120.967 34.5552H105.43V13.4321H120.967V34.5552Z" fill="white"/>
</mask>
<g mask="url(#mask1_790:2904)">
<path fill-rule="evenodd" clip-rule="evenodd" d="M112.976 23.4144H112.916C112.838 22.2797 111.906 13.4321 111.906 13.4321H107.598L110.064 26.7715C110.123 27.0686 110.094 27.2469 109.975 27.4547C109.5 28.3758 108.698 29.267 107.747 29.9205C106.974 30.485 106.113 30.8416 105.43 31.0791L106.559 34.5553C107.39 34.377 109.114 33.6935 110.569 32.327C112.441 30.5742 114.164 27.8706 115.946 24.1866L120.967 13.4321H116.689C116.689 13.4321 114.126 19.8896 112.976 23.4144Z" fill="#010202"/>
</g>
</svg>
